<svg width="42" height="45" viewBox="0 0 42 45" fill="none" xmlns="http://www.w3.org/2000/svg">
<path d="M39.533 26.7062C47.3002 5.82827 27.156 2.53584 27.156 2.53584C27.156 2.53584 28.3569 1.99356 33.238 2.59394C25.6258 -1.68622 20.5316 0.289239 17.8586 1.76115C15.7474 2.92319 15.0113 4.14332 13.5973 5.47967C13.5005 5.5765 13.3649 5.6346 13.2487 5.67334C12.532 4.87928 13.1712 3.48484 14.0428 2.34217C14.0428 2.34217 7.28291 4.00775 7.90273 9.31439C7.24417 9.97287 6.37255 10.5733 6.58561 10.9606C6.79868 11.3479 7.39913 12.2195 7.39913 12.2195C7.39913 12.2195 0.329281 15.3957 0 18.1459C1.25901 17.9328 1.47208 18.2621 1.70451 18.417C2.0919 18.5719 3.89326 18.5719 4.82299 17.9135C5.21038 18.6881 4.8811 19.0174 4.55182 19.0755C4.22254 19.1336 3.40902 18.8624 3.02163 19.4628C2.63424 20.0632 2.36307 20.6636 1.97568 20.5668C1.58829 20.4506 1.25901 19.9664 1.10406 20.1213C0.949103 20.2763 0.832886 21.7675 1.76262 22.5422C1.54956 21.7094 2.15001 20.7798 4.39686 22.2711C6.64372 23.743 7.24417 24.1303 8.44508 23.7624C9.64598 23.375 11.2343 21.7288 9.70409 20.2375C11.8347 20.5087 13.3649 20.2375 13.4811 19.1336C13.9266 18.3589 14.5852 19.3466 14.2559 20.1213C13.9266 20.896 13.8685 21.3802 13.9847 21.6513C13.6555 21.9806 13.5005 22.5422 12.5514 23.2007C13.3262 23.6462 17.3163 22.0968 17.6456 16.9451C18.3041 18.8624 19.0208 21.6126 14.0235 25.1955C9.04553 28.7591 10.7307 34.1626 10.7307 34.1626C12.0478 31.5286 12.1059 28.9915 16.096 26.5706C20.0861 24.1497 20.3185 22.8327 20.3185 22.8327C20.3185 22.8327 20.6478 24.2659 19.1176 27.3453C20.919 26.5125 25.1415 21.7482 20.3573 16.306C18.4203 14.4273 18.3622 11.6385 18.6334 10.9219C18.033 11.9677 16.987 11.7934 16.4447 11.7934C16.8902 11.4642 17.4325 9.97287 17.4325 9.97287C17.4325 9.97287 16.7158 10.3021 14.9726 8.53969C13.4811 8.55906 11.9703 8.48159 10.4789 8.32665C10.8469 7.61007 11.3311 6.97095 11.9316 6.44803C11.9122 6.4674 11.9122 6.48676 11.8928 6.50613C11.4473 8.86894 13.9847 7.61007 13.9847 7.61007C21.81 4.41447 25.374 6.4093 26.5168 7.99741C25.374 7.93931 23.7276 9.75983 23.1852 11.6772C23.8438 12.0064 25.5289 14.04 25.4321 16.7901C24.9866 15.9574 22.6429 13.0523 20.6091 13.2266C25.006 18.4945 25.0447 22.5035 21.4226 26.803C17.8005 31.1026 16.3091 30.0955 16.3284 27.8489C7.43787 36.9515 17.9167 43.2458 19.6212 44.0012C18.033 36.8546 23.0496 39.2755 26.7492 29.6113C27.6983 32.0709 20.183 39.8953 26.1681 42.4711C26.8267 38.6171 30.3713 36.6029 33.1605 34.2788C41.0439 27.3066 33.4123 14.8534 30.3713 12.142C31.7659 13.3621 36.9182 16.9257 39.533 26.7062ZM10.6338 12.0452C11.7379 10.9412 12.8807 12.5875 14.0235 13.2072C12.319 12.5294 12.0091 12.5875 11.8347 12.7618C11.6604 12.9361 11.5055 13.8657 10.7307 13.8076C9.97526 13.7495 9.49103 13.3815 9.18112 13.4977C9.02616 13.5558 6.68246 14.9696 6.68246 14.9696C6.68246 14.9696 6.89552 13.9819 8.44508 12.9748C8.77436 12.8199 8.44508 12.1033 8.50319 12.0452C8.54193 11.9871 9.3167 13.459 10.6338 12.0452Z" fill="white"/>
<path d="M10.1299 21.2445H10.1105H10.1299L10.2074 21.2832C10.2461 21.3026 10.3042 21.322 10.343 21.3413C10.4398 21.3801 10.5367 21.4188 10.6141 21.4575C10.8078 21.5544 10.9628 21.6706 11.1177 21.8062C11.2533 21.9417 11.3695 22.116 11.447 22.3097C11.5245 22.484 11.5632 22.6777 11.5632 22.8714C11.5051 22.6971 11.4276 22.5227 11.3308 22.3872C11.234 22.2516 11.0984 22.1354 10.9434 22.0386C10.7885 21.9611 10.6335 21.903 10.4785 21.8643C10.4011 21.8449 10.3042 21.8255 10.2267 21.8255H10.0912H10.033H9.99431C9.95557 21.8255 9.9362 21.8062 9.89746 21.8062L10.1299 21.2445Z" fill="white"/>
<path d="M10.0143 22.0773C10.1112 22.1354 10.1887 22.2128 10.2661 22.2709C10.3436 22.3484 10.4211 22.4065 10.4986 22.484C10.6342 22.6389 10.7504 22.7939 10.8472 22.9875C10.9441 23.1618 11.0215 23.3555 11.0603 23.5492C11.099 23.7429 11.1184 23.9365 11.1184 24.1302C11.0797 23.9365 11.0215 23.7622 10.9247 23.6073C10.8472 23.4523 10.731 23.2974 10.6148 23.1618C10.4986 23.0263 10.363 22.9101 10.208 22.8132C10.1306 22.7551 10.0531 22.7164 9.9756 22.6777C9.89812 22.6389 9.82064 22.6002 9.74316 22.5808L10.0143 22.0773Z" fill="white"/>
<path d="M9.58807 22.7551C9.74303 22.8907 9.89798 23.0456 10.0142 23.2199C10.1498 23.3749 10.266 23.5492 10.3628 23.7429C10.4597 23.9172 10.5372 24.1108 10.5759 24.3045C10.6147 24.4982 10.634 24.7112 10.5953 24.9049C10.5759 24.7112 10.5178 24.5369 10.4403 24.3626C10.3435 24.2077 10.2466 24.0527 10.111 23.9172C9.99483 23.7816 9.83987 23.6654 9.70429 23.5492C9.5687 23.433 9.41374 23.3361 9.25879 23.2587L9.58807 22.7551Z" fill="white"/>
<path d="M8.77443 23.2781C8.87128 23.3749 8.96813 23.4717 9.0456 23.5686C9.12308 23.6654 9.20056 23.7623 9.25867 23.8785C9.39425 24.0915 9.4911 24.3045 9.54921 24.5369C9.62669 24.7694 9.66543 25.0018 9.66543 25.2535C9.66543 25.4859 9.64606 25.7184 9.58795 25.9508C9.58795 25.7184 9.56858 25.4859 9.52984 25.2729C9.4911 25.0599 9.41362 24.8468 9.29741 24.6532C9.20056 24.4595 9.06497 24.2852 8.91002 24.1302C8.83254 24.0528 8.75506 23.9753 8.67758 23.9172C8.60011 23.8591 8.52263 23.801 8.42578 23.7429L8.77443 23.2781Z" fill="white"/>
<path d="M2.57575 22.6196C2.57575 22.6196 10.3429 24.9631 6.46901 27.752L6.89514 29.7855C6.89514 29.7855 4.55143 30.5215 2.90503 26.2026C3.44738 28.3523 3.23431 28.2555 3.23431 28.2555C3.23431 28.2555 1.37484 27.0935 1.70413 26.0089C2.01404 24.8856 2.40143 23.7236 2.57575 22.6196Z" fill="white"/>
<path d="M9.95599 27.1903C9.95599 27.1903 7.16679 33.6396 11.8348 39.353C7.88346 38.036 3.83524 31.2187 9.95599 27.1903Z" fill="white"/>
<path d="M17.0449 7.97799C17.3742 7.72621 17.7422 7.49381 18.1102 7.3195C18.4976 7.1452 18.885 6.99026 19.2918 6.89342C19.7179 6.77722 20.1634 6.71912 20.6089 6.71912C20.8607 6.71912 21.0931 6.73848 21.3449 6.79658C21.6355 6.85469 21.8873 6.97089 22.1197 7.1452C22.3909 7.33887 22.604 7.61001 22.7395 7.93925C22.8558 8.22976 22.8945 8.53964 22.8558 8.83015C22.7976 9.31433 22.6427 9.77914 22.3909 10.1859C22.1778 10.5538 21.9067 10.9024 21.6161 11.2123C21.3256 11.5222 20.9963 11.7933 20.6283 12.0257C20.7057 11.5997 20.8413 11.2123 20.9575 10.825C21.0738 10.4376 21.19 10.0697 21.2675 9.72104C21.3062 9.54674 21.3449 9.3918 21.3643 9.21749C21.3837 9.06256 21.403 8.92698 21.403 8.77205C21.403 8.67521 21.3837 8.57837 21.3449 8.48154C21.3256 8.42344 21.2868 8.36533 21.2287 8.3266C21.1319 8.24913 21.035 8.2104 20.9382 8.17166C20.7832 8.13293 20.6476 8.09419 20.4927 8.07482C20.144 8.01672 19.776 7.99736 19.408 7.99736C18.6913 7.97799 17.8972 8.01672 17.0449 7.97799Z" fill="white"/>
</svg>
